<?xml version="1.0" encoding="UTF-8"?>
<svg id="Capa_1" data-name="Capa 1" xmlns="http://www.w3.org/2000/svg" viewBox="0 0 1080 1920">
  <defs>
    <style>
      .cls-1 {
        fill: #121a56;
        stroke-width: 0px;
      }
    </style>
  </defs>
  <path class="cls-1" d="m898.74,1317.22c-29.86-29.4-59.2-58.27-89.62-88.22,4.47-4.81,8.69-9.12,12.66-13.64,79.36-90.57,111.1-195.3,94.07-314.75-1.26-8.85-4.16-11.8-13.21-11.77-93.91.27-187.83.06-281.74.31-4.86.01-11.1,1.53-14.35,4.73-45.13,44.37-89.85,89.16-137.11,136.29h297.04c-7.19,71.16-100.7,152.82-188.1,165.82-111.75,16.61-217.21-42.66-259.44-145.83-41.56-101.53-8.36-218.55,80.12-283.34,87.23-63.87,216.13-65.82,309.54,22.44,62.56-62.85,125.15-125.71,187.67-188.52,193.56,183.25,207.03,516.71,2.48,716.49Z"/>
  <path class="cls-1" d="m708.58,1301.88c.32,5.41.74,9.27.74,13.13.06,37.21-.18,74.41.24,111.62.09,8.3-1.88,12.41-10.51,14.98-186.18,55.36-353.92,21.32-499.73-107.17-95.89-84.5-149.64-193.26-163.21-320.12C7.24,744.19,192.35,510.09,443.32,462.18c86.16-16.45,170.68-11.12,254.17,15.35,9.27,2.94,12.26,7.04,12.11,16.65-.57,36.31-.21,72.64-.26,108.96,0,4.31-.41,8.61-.74,14.83-108.72-49.36-217.24-52.63-325.58-4.34-72.88,32.49-129.67,84.06-170.17,152.79-81.81,138.86-67.57,311.87,34.11,435.81,95.09,115.91,276.9,185.08,461.61,99.64Z"/>
</svg>
